# xmcd
#
# Track frame offsets: 
#        150
#        22262
#        39650
#        59937
#        77725
#        93825
#        110987
#        125412
#        143225
#        157650
#        171287
#
# Disc length: 2545 seconds
#
# Revision: 2
# Processed by: cddbd v1.5.2PL0 Copyright (c) Steve Scherf et al.
# Submitted via: ExactAudioCopyFreeDBPlugin 1.0
#
DISCID=9a09ef0b
DTITLE=ชีพชนก ศรียามาตย์ - เพลง พราย
DYEAR=1996
DGENRE=Acoustic
TTITLE0=ฝัน
TTITLE1=เจ้าหญิงแห่งดอกไม้
TTITLE2=ก่อน
TTITLE3=เหงา
TTITLE4=ลืม
TTITLE5=จริงเพียงจริง
TTITLE6=กำพร้า
TTITLE7=เข้มแข็งไว้คนดี
TTITLE8=เพื่อนรัก
TTITLE9=ฝากไว้ใต้หมอน
TTITLE10=ฝัน(บรรเลง)
EXTD=
EXTT0=
EXTT1=
EXTT2=
EXTT3=
EXTT4=
EXTT5=
EXTT6=
EXTT7=
EXTT8=
EXTT9=
EXTT10=
PLAYORDER=
